HIERARCHY
ROOT Hips
{
  OFFSET 2.26061 22.2878 23.7974
  CHANNELS 6 Xposition Yposition Zposition Zrotation Xrotation Yrotation
  JOINT LeftUpLeg
  {
    OFFSET 8.64259 1.95398 -2.38835
    CHANNELS 3 Zrotation Xrotation Yrotation
    JOINT LeftLeg
    {
      OFFSET 43.7702 0 0
      CHANNELS 3 Zrotation Xrotation Yrotation
      JOINT LeftFoot
      {
        OFFSET 40.6238 0 0
        CHANNELS 3 Zrotation Xrotation Yrotation
        JOINT LeftToeBase
        {
          OFFSET 12.7242 0 0
          CHANNELS 3 Zrotation Xrotation Yrotation
          End Site
          {
            OFFSET 0 0 0
          }
        }
      }
    }
  }
  JOINT RightUpLeg
  {
    OFFSET -8.2249 1.95398 -2.59336
    CHANNELS 3 Zrotation Xrotation Yrotation
    JOINT RightLeg
    {
      OFFSET 43.5653 0 0
      CHANNELS 3 Zrotation Xrotation Yrotation
      JOINT RightFoot
      {
        OFFSET 40.6238 0 0
        CHANNELS 3 Zrotation Xrotation Yrotation
        JOINT RightToeBase
        {
          OFFSET 12.7242 0 0
          CHANNELS 3 Zrotation Xrotation Yrotation
          End Site
          {
            OFFSET 0 0 0
          }
        }
      }
    }
  }
  JOINT Spine
  {
    OFFSET 0.165834 0.87714 6.61349
    CHANNELS 3 Zrotation Xrotation Yrotation
    JOINT Spine1
    {
      OFFSET 7.38963 1.71661e-005 0
      CHANNELS 3 Zrotation Xrotation Yrotation
      JOINT Spine2
      {
        OFFSET 11.9445 1.14441e-005 0
        CHANNELS 3 Zrotation Xrotation Yrotation
        JOINT Spine3
        {
          OFFSET 14.7254 4.19617e-005 0
          CHANNELS 3 Zrotation Xrotation Yrotation
          JOINT Spine4
          {
            OFFSET 10.9679 0 0
            CHANNELS 3 Zrotation Xrotation Yrotation
            JOINT RightShoulder
            {
              OFFSET 2.46616 -1.6653 3.69651
              CHANNELS 3 Zrotation Xrotation Yrotation
              JOINT RightArm
              {
                OFFSET 13.0012 0 0
                CHANNELS 3 Zrotation Xrotation Yrotation
                JOINT RightForeArm
                {
                  OFFSET 28.7848 1.52588e-005 0
                  CHANNELS 3 Zrotation Xrotation Yrotation
                  JOINT RightHand
                  {
                    OFFSET 26.5688 1.52588e-005 0
                    CHANNELS 3 Zrotation Xrotation Yrotation
                    End Site
                    {
                      OFFSET 0 0 0
                    }
                  }
                }
              }
            }
            JOINT LeftShoulder
            {
              OFFSET 2.38034 -1.29275 -3.7523
              CHANNELS 3 Zrotation Xrotation Yrotation
              JOINT LeftArm
              {
                OFFSET 16.3182 6.10351e-005 0
                CHANNELS 3 Zrotation Xrotation Yrotation
                JOINT LeftForeArm
                {
                  OFFSET 27.0901 0 0
                  CHANNELS 3 Zrotation Xrotation Yrotation
                  JOINT LeftHand
                  {
                    OFFSET 24.5451 1.52588e-005 0
                    CHANNELS 3 Zrotation Xrotation Yrotation
                    End Site
                    {
                      OFFSET 0 0 0
                    }
                  }
                }
              }
            }
            JOINT Neck
            {
              OFFSET 5.0226 -0.0266342 0
              CHANNELS 3 Zrotation Xrotation Yrotation
              JOINT Head
              {
                OFFSET 6.69363 2.86102e-005 0
                CHANNELS 3 Zrotation Xrotation Yrotation
                End Site
                {
                  OFFSET 0 0 0
                }
              }
            }
          }
        }
      }
    }
  }
}
MOTION
Frames:	7
Frame Time:	0.0416667
-2.25875 92.9115 -54.6845 89.0365 -19.0961 85.7801 -173.127 -4.26378 90.0406 -30.4526 27.3214 2.7297 66.5237 7.34528 5.95759 45.9994 14.5008 7.13993 175.511 26.7074 86.5238 -7.01644 0.656098 -2.64642 66.0364 -3.28631 -1.79146 47.5096 0.00497855 -9.41365 -1.41759 7.73736 -89.6627 11.4112 -2.66318 0.940042 -0.257409 -2.61923 1.0564 -22.8143 -2.82249 0.0955886 -2.80162 -2.82249 0.095578 95.1759 -57.6044 -91.8862 19.9504 -10.2419 27.4992 -9.29884 -34.4975 -41.6126 -1.26838 -0.674726 3.7426 -100.679 -47.9411 62.2315 -2.1176 8.69966 -13.1078 6.58733 7.86565 -46.1283 13.8299 0.791866 1.82333 -12.1715 -16.2428 1.27725 14.1858 -17.657 -9.4287 
5.2474 91.7624 -49.8939 88.92 -18.8208 87.6164 -173.241 -5.13358 93.6026 -36.5761 28.9959 4.90183 59.989 1.30536 1.84181 49.9497 18.9715 11.7336 175.63 30.6207 88.4405 -21.4072 3.44046 -1.40716 64.3377 -2.29208 -1.24318 43.1594 0.19089 -8.60236 -1.58096 7.60518 -90.0064 11.6719 -3.14762 0.315928 0.00468432 -3.13063 0.454277 -22.5603 -3.09692 -0.645611 -2.54768 -3.09691 -0.645612 95.5401 -58.2905 -91.2939 17.7762 -9.10418 26.9032 -10.5765 -37.0035 -40.5872 -0.980786 -0.721973 4.73953 -100.752 -48.0949 62.1852 -3.84679 8.4673 -11.3001 7.83648 9.11274 -45.5775 13.6348 0.749354 1.59814 -11.8863 -16.0289 1.66566 13.5027 -17.1857 -7.96439 
12.6866 91.2369 -45.4446 89.5584 -20.5596 90.8524 -173.459 -3.69671 96.8774 -43.557 23.9918 5.3745 45.763 -8.37724 -6.27523 46.0389 16.5436 18.8493 175.468 31.6611 91.8311 -33.593 2.36894 -0.422849 62.6949 -1.52684 -0.791925 40.6891 0.268908 -7.30914 -1.53519 7.63108 -90.4761 11.6044 -3.27675 -0.609012 -0.0624879 -3.30038 -0.464062 -22.6243 -2.94216 -1.56643 -2.61161 -2.94212 -1.56642 94.7753 -57.5303 -92.4614 16.8468 -7.54269 24.461 -10.2227 -35.9921 -39.454 -1.13237 -0.730901 5.52817 -102.053 -49.554 60.8728 -6.12817 8.89071 -6.30387 6.79202 8.06153 -45.0063 15.6498 0.830039 1.4316 -10.4656 -14.5682 3.51671 12.4159 -15.6236 -7.32899 
19.0963 90.8775 -41.2585 91.6615 -23.913 91.9818 -173.776 1.32298 97.1662 -56.5748 17.3228 3.9998 38.4378 -12.5359 -7.8626 33.5746 3.17412 16.4288 175.026 29.0158 93.6008 -41.6897 1.83883 -0.060319 68.5094 -3.36654 -1.76966 33.7875 0.321257 -2.76233 -1.2163 7.78261 -90.4723 11.3021 -2.64036 -0.677649 -0.366299 -2.66763 -0.560709 -22.9176 -2.31459 -1.44021 -2.90492 -2.31459 -1.4402 94.444 -55.9458 -93.1389 19.0845 -6.36553 21.2574 -9.10225 -30.9882 -39.7286 -2.86175 -0.743967 4.96781 -102.333 -50.0794 60.6812 -9.21895 11.232 -2.59555 5.18288 8.15658 -42.4377 17.3298 0.944195 1.59034 -10.329 -12.4492 3.10754 12.3855 -13.3138 -5.902 
25.454 91.7804 -37.1938 92.2488 -26.854 91.8285 -173.062 9.91679 95.4226 -65.6167 14.5811 2.22088 42.3599 -10.1481 -2.04416 38.3164 7.98648 13.6297 176.707 23.6917 94.6232 -42.2485 1.49937 -1.75643 72.7382 -5.09682 -2.52962 32.1407 0.272993 -2.95211 -0.796389 7.78949 -90.3574 11.2919 -1.75129 -0.537856 -0.377923 -1.77328 -0.460238 -22.9196 -1.50866 -1.03941 -2.90689 -1.50869 -1.03943 94.0232 -54.715 -93.9205 21.49 -6.65332 17.7702 -7.95672 -24.7478 -43.1075 -7.13776 -0.827398 3.63635 -102.608 -50.8566 60.5987 -13.5107 12.2687 1.05089 5.20654 10.0905 -39.221 16.3557 1.10339 2.86116 -11.0664 -10.2595 2.37482 12.4187 -10.8771 -4.23381 
31.8374 93.3631 -33.0477 92.5121 -28.4363 90.5529 -172.346 17.3442 92.675 -65.2253 13.4926 0.822031 48.4669 -5.79292 -1.69289 40.9556 10.6201 13.7809 177.733 16.3381 94.4933 -38.2729 1.95948 -3.4941 75.2107 -5.95612 -2.83175 31.8271 0.259936 -2.84833 -0.465529 7.75103 -90.1595 11.3712 -1.00039 -0.217135 -0.299431 -1.00899 -0.172896 -22.837 -0.888883 -0.507774 -2.82435 -0.888916 -0.507787 94.5159 -54.4759 -93.2326 22.0575 -7.22222 13.7158 -6.77525 -19.4465 -48.4618 -10.2349 -0.819599 2.29285 -102.231 -51.5058 61.3873 -18.3387 12.8736 4.9347 4.36325 10.7724 -35.4528 13.1915 0.906684 2.91728 -12.4353 -8.47892 2.6371 11.865 -9.06166 -4.16308 
38.2278 94.9992 -28.992 92.1321 -29.7399 88.8954 -171.719 22.0262 89.6556 -54.4569 12.2742 -0.696907 53.9125 -2.19774 0.40029 42.187 11.7415 12.8076 177.446 8.6897 93.3741 -32.0802 0.599171 -4.64358 75.0509 -5.86849 -2.79437 32.499 0.299132 -3.54135 -0.15421 7.67465 -89.9248 11.5249 -0.271604 0.177332 -0.146033 -0.263524 0.189104 -22.6814 -0.312334 0.0875058 -2.66872 -0.312332 0.0874985 93.5477 -54.4631 -94.655 21.2873 -7.80731 9.74804 -8.94187 -18.5377 -53.7409 -14.7006 -0.824619 0.775027 -101.406 -51.988 62.736 -22.7129 13.8183 9.09592 3.7757 12.7601 -32.064 13.2121 0.967373 3.34939 -13.4818 -6.81668 1.9394 10.8646 -7.22659 -3.17989 
